<?xml version="1.0" encoding="UTF-8" standalone="no"?>
<svg
   height="128"
   viewBox="0 0 128 128"
   width="128"
   version="1.1"
   id="svg4"
   sodipodi:docname="broken_image_placeholder.svg"
   inkscape:version="1.2.2 (732a01da63, 2022-12-09)"
   xmlns:inkscape="http://www.inkscape.org/namespaces/inkscape"
   xmlns:sodipodi="http://sodipodi.sourceforge.net/DTD/sodipodi-0.dtd"
   xmlns="http://www.w3.org/2000/svg"
   xmlns:svg="http://www.w3.org/2000/svg">
  <defs
     id="defs8" />
  <sodipodi:namedview
     id="namedview6"
     pagecolor="#ffffff"
     bordercolor="#000000"
     borderopacity="0.25"
     inkscape:showpageshadow="2"
     inkscape:pageopacity="0.0"
     inkscape:pagecheckerboard="0"
     inkscape:deskcolor="#d1d1d1"
     showgrid="true"
     inkscape:zoom="4.0117188"
     inkscape:cx="23.555988"
     inkscape:cy="68.299902"
     inkscape:window-width="2560"
     inkscape:window-height="1377"
     inkscape:window-x="-8"
     inkscape:window-y="-8"
     inkscape:window-maximized="1"
     inkscape:current-layer="svg4">
    <inkscape:grid
       type="xygrid"
       id="grid394"
       originx="0"
       originy="0"
       empspacing="8" />
  </sodipodi:namedview>
  <path
     d="m 16,8 a 8,8 0 0 0 -8,8 v 96 a 8,8 0 0 0 8,8 h 96 a 8,8 0 0 0 8,-8 V 16 a 8,8 0 0 0 -8,-8 z m 8,16 h 80 V 88 H 24 Z m 48,16 -12,20 -5.60936,9.344 -0.796872,-1.34376 -7.18752,-12 -7.20312,12 -7.20312,12 h 14.4064 1.59376 12.7968 11.2032 24 l -12,-20 -12,-20 z"
     fill="#e0e0e0"
     id="path2"
     style="fill:#ffffff;stroke:#eeeeee;stroke-width:2;stroke-opacity:1;paint-order:markers stroke fill;stroke-dasharray:none" />
  <rect
     style="fill:#ff0000;stroke:none;stroke-width:18.6628;stroke-linecap:round"
     id="rect398"
     width="161.6244"
     height="8.0812206"
     x="-80.812202"
     y="86.469063"
     transform="rotate(-45)" />
</svg>
