<?xml version="1.0" encoding="UTF-8" standalone="no"?>
<svg
   height="16"
   viewBox="0 0 16 16"
   width="16"
   version="1.1"
   id="svg1419"
   sodipodi:docname="background.svg"
   inkscape:version="1.2.2 (732a01da63, 2022-12-09)"
   xmlns:inkscape="http://www.inkscape.org/namespaces/inkscape"
   xmlns:sodipodi="http://sodipodi.sourceforge.net/DTD/sodipodi-0.dtd"
   xmlns="http://www.w3.org/2000/svg"
   xmlns:svg="http://www.w3.org/2000/svg">
  <defs
     id="defs1423" />
  <sodipodi:namedview
     id="namedview1421"
     pagecolor="#ffffff"
     bordercolor="#000000"
     borderopacity="0.25"
     inkscape:showpageshadow="2"
     inkscape:pageopacity="0.0"
     inkscape:pagecheckerboard="0"
     inkscape:deskcolor="#d1d1d1"
     showgrid="false"
     inkscape:zoom="64.1875"
     inkscape:cx="6.6290166"
     inkscape:cy="7.9922103"
     inkscape:window-width="2560"
     inkscape:window-height="1377"
     inkscape:window-x="-8"
     inkscape:window-y="-8"
     inkscape:window-maximized="1"
     inkscape:current-layer="svg1419" />
  <path
     id="path1417-2"
     style="display:inline;fill:#e0e0e0;fill-opacity:1"
     d="M 2 1 C 1.4477159 1 1 1.4477159 1 2 L 1 14 C 1 14.552284 1.4477159 15 2 15 L 14 15 C 14.552284 15 15 14.552284 15 14 L 15 2 C 15 1.4477159 14.552284 1 14 1 L 2 1 z M 9.5 4 L 11.75 7.75 L 14 11.5 L 9.5 11.5 L 7.4003906 11.5 L 5 11.5 L 4.7011719 11.5 L 2 11.5 L 3.3496094 9.25 L 4.7011719 7 L 6.0488281 9.25 L 6.1972656 9.5019531 L 7.25 7.75 L 9.5 4 z " />
</svg>
