<?xml version="1.0" encoding="UTF-8" standalone="no"?>
<!-- Created with Inkscape (http://www.inkscape.org/) -->

<svg
   width="16"
   height="16"
   viewBox="0 0 4.2333331 4.2333334"
   version="1.1"
   id="svg5"
   inkscape:version="1.2.2 (732a01da63, 2022-12-09)"
   sodipodi:docname="edge_dash.svg"
   inkscape:export-filename="icon.png"
   inkscape:export-xdpi="36"
   inkscape:export-ydpi="36"
   xmlns:inkscape="http://www.inkscape.org/namespaces/inkscape"
   xmlns:sodipodi="http://sodipodi.sourceforge.net/DTD/sodipodi-0.dtd"
   xmlns="http://www.w3.org/2000/svg"
   xmlns:svg="http://www.w3.org/2000/svg">
  <sodipodi:namedview
     id="namedview7"
     pagecolor="#ffffff"
     bordercolor="#000000"
     borderopacity="0.25"
     inkscape:showpageshadow="2"
     inkscape:pageopacity="0.0"
     inkscape:pagecheckerboard="0"
     inkscape:deskcolor="#d1d1d1"
     inkscape:document-units="px"
     showgrid="true"
     inkscape:zoom="31.316673"
     inkscape:cx="0.095795618"
     inkscape:cy="8.8770606"
     inkscape:window-width="2560"
     inkscape:window-height="1377"
     inkscape:window-x="-8"
     inkscape:window-y="-8"
     inkscape:window-maximized="1"
     inkscape:current-layer="layer1">
    <inkscape:grid
       type="xygrid"
       id="grid9"
       spacingx="0.52916666"
       spacingy="0.52916666"
       empspacing="8"
       originx="0"
       originy="0" />
  </sodipodi:namedview>
  <defs
     id="defs2" />
  <g
     inkscape:label="Layer 1"
     inkscape:groupmode="layer"
     id="layer1">
    <path
       style="color:#000000;fill:#e0e0e0;stroke-linecap:round;stroke-linejoin:round;stroke-dasharray:0.423333, 0.9525;-inkscape-stroke:none"
       d="m 2.1230469,0.67382812 -0.1777344,0.003906 a 0.26460978,0.26460978 0 0 0 -0.013672,0.001953 l -0.1757812,0.0117188 a 0.26460978,0.26460978 0 0 0 -0.013672,0.001953 l -0.068359,0.007813 A 0.26458332,0.26458332 0 0 0 1.4433594,0.99609375 0.26458332,0.26458332 0 0 0 1.7382812,1.2265625 l 0.0625,-0.00781 0.1621094,-0.011719 0.171875,-0.00391 A 0.26458332,0.26458332 0 0 0 2.3925781,0.93359375 0.26458332,0.26458332 0 0 0 2.1230469,0.67382812 Z M 3.03125,0.78710937 a 0.26458332,0.26458332 0 0 0 -0.3261719,0.18554688 0.26458332,0.26458332 0 0 0 0.1875,0.32421875 l 0.00977,0.00391 0.064453,0.019531 0.0625,0.023437 0.056641,0.023437 0.054687,0.025391 0.048828,0.025391 0.019531,0.013672 A 0.26458332,0.26458332 0 0 0 3.5742188,1.3457031 0.26458332,0.26458332 0 0 0 3.4882813,0.98242188 l -0.025391,-0.0175781 a 0.26460978,0.26460978 0 0 0 -0.013672,-0.007813 l -0.0625,-0.0332031 a 0.26460978,0.26460978 0 0 0 -0.013672,-0.007813 l -0.066406,-0.03125 a 0.26460978,0.26460978 0 0 0 -0.011719,-0.003906 L 3.2246094,0.8515625 a 0.26460978,0.26460978 0 0 0 -0.00977,-0.003906 L 3.1425781,0.8203125 a 0.26460978,0.26460978 0 0 0 -0.011719,-0.003906 l -0.074219,-0.0234375 a 0.26460978,0.26460978 0 0 0 -0.00977,-0.001953 z M 0.64648437,1.0664062 0.59765625,1.1074219 a 0.26460978,0.26460978 0 0 0 -0.015625,0.013672 l -0.046875,0.046875 a 0.26460978,0.26460978 0 0 0 -0.0136719,0.013672 l -0.0449219,0.050781 a 0.26460978,0.26460978 0 0 0 -0.0117188,0.013672 l -0.0410156,0.052734 a 0.26460978,0.26460978 0 0 0 -0.009766,0.015625 l -0.0371094,0.054687 a 0.26460978,0.26460978 0 0 0 -0.009766,0.015625 l -0.0332031,0.056641 a 0.26460978,0.26460978 0 0 0 -0.007813,0.015625 l -0.009766,0.021484 A 0.26458332,0.26458332 0 0 0 0.43554688,1.8339844 0.26458332,0.26458332 0 0 0 0.7890625,1.7148437 l 0.007813,-0.015625 0.0253906,-0.042969 0.0273438,-0.041016 0.0292969,-0.039063 0.03125,-0.035156 0.0351563,-0.035156 0.0410156,-0.033203 A 0.26458332,0.26458332 0 0 0 1.0175781,1.0996094 0.26458332,0.26458332 0 0 0 0.64648437,1.0664062 Z M 3.7910156,1.7324219 a 0.26458332,0.26458332 0 0 0 -0.2304687,0.296875 l 0.00391,0.019531 0.00391,0.054687 v 0.052734 0.054687 l -0.00391,0.054687 -0.00781,0.052734 -0.00977,0.050781 A 0.26458332,0.26458332 0 0 0 3.7617188,2.6757813 0.26458332,0.26458332 0 0 0 4.0683594,2.4628906 L 4.078125,2.40625 a 0.26460978,0.26460978 0 0 0 0.00195,-0.013672 l 0.00977,-0.066406 A 0.26460978,0.26460978 0 0 0 4.0917969,2.3125 l 0.00391,-0.068359 a 0.26460978,0.26460978 0 0 0 0.00195,-0.013672 v -0.066406 a 0.26460978,0.26460978 0 0 0 0,-0.00977 0.26460978,0.26460978 0 0 0 0,-0.00391 v -0.066406 a 0.26460978,0.26460978 0 0 0 -0.00195,-0.013672 l -0.00391,-0.068359 a 0.26460978,0.26460978 0 0 0 -0.00195,-0.013672 l -0.00391,-0.027344 A 0.26458332,0.26458332 0 0 0 3.7910156,1.7324219 Z M 0.40039063,2.2695313 A 0.26458332,0.26458332 0 0 0 0.21679688,2.59375 l 0.007813,0.029297 a 0.26460978,0.26460978 0 0 0 0.003906,0.013672 L 0.25,2.6992188 a 0.26460978,0.26460978 0 0 0 0.005859,0.015625 l 0.0234375,0.0625 a 0.26460978,0.26460978 0 0 0 0.007813,0.013672 l 0.0292969,0.060547 a 0.26460978,0.26460978 0 0 0 0.007813,0.015625 l 0.0332031,0.056641 a 0.26460978,0.26460978 0 0 0 0.009766,0.015625 l 0.0371094,0.056641 a 0.26460978,0.26460978 0 0 0 0.009766,0.015625 l 0.0390625,0.048828 a 0.26458332,0.26458332 0 0 0 0.37109375,0.046875 0.26458332,0.26458332 0 0 0 0.046875,-0.3710938 L 0.83789063,2.6933594 0.8125,2.6542969 0.7890625,2.6132813 0.76757812,2.5683594 0.74804687,2.5234375 0.73242187,2.4746094 0.7265625,2.4550781 A 0.26458332,0.26458332 0 0 0 0.40039063,2.2695313 Z m 2.73632817,0.6523437 -0.050781,0.023437 -0.056641,0.025391 -0.0625,0.021484 -0.064453,0.019531 -0.070312,0.019531 -0.027344,0.00586 A 0.26458332,0.26458332 0 0 0 2.6074219,3.3554688 0.26458332,0.26458332 0 0 0 2.9238281,3.5527344 l 0.033203,-0.00781 a 0.26460978,0.26460978 0 0 0 0.00977,-0.00195 l 0.078125,-0.021484 a 0.26460978,0.26460978 0 0 0 0.00977,-0.00195 l 0.076172,-0.023437 a 0.26460978,0.26460978 0 0 0 0.00977,-0.00391 l 0.072266,-0.025391 a 0.26460978,0.26460978 0 0 0 0.011719,-0.00586 l 0.070312,-0.027344 a 0.26460978,0.26460978 0 0 0 0.011719,-0.00586 l 0.066406,-0.03125 a 0.26460978,0.26460978 0 0 0 0.011719,-0.00781 h 0.00391 A 0.26458332,0.26458332 0 0 0 3.4960938,3.0292969 0.26458332,0.26458332 0 0 0 3.1367188,2.921875 Z M 1.546875,3.0566406 A 0.26458332,0.26458332 0 0 0 1.2382812,3.2675781 0.26458332,0.26458332 0 0 0 1.4472656,3.5761719 l 0.03125,0.00586 a 0.26460978,0.26460978 0 0 0 0.00781,0.00195 l 0.082031,0.013672 a 0.26460978,0.26460978 0 0 0 0.011719,0.00195 l 0.1679688,0.019531 a 0.26460978,0.26460978 0 0 0 0.011719,0 l 0.140625,0.00977 a 0.26458332,0.26458332 0 0 0 0.28125,-0.2460938 0.26458332,0.26458332 0 0 0 -0.2460937,-0.28125 L 1.8027344,3.0917969 1.6464844,3.0742188 1.5742187,3.0625 Z"
       id="path1121-4-4" />
    <text
       xml:space="preserve"
       style="font-style:normal;font-variant:normal;font-weight:normal;font-stretch:normal;font-size:0.264584px;font-family:'Comic Book';-inkscape-font-specification:'Comic Book, ';text-align:center;text-anchor:middle;fill:none;fill-opacity:1;stroke:#000000;stroke-width:0.264584;stroke-linecap:round;stroke-linejoin:round;stroke-dasharray:none;stroke-opacity:1"
       x="0.52916664"
       y="2.1166666"
       id="text1297"><tspan
         sodipodi:role="line"
         id="tspan1295"
         style="font-style:normal;font-variant:normal;font-weight:normal;font-stretch:normal;font-family:'Comic Book';-inkscape-font-specification:'Comic Book, ';stroke-width:0.264584"
         x="0.52916664"
         y="2.1166666" /></text>
  </g>
</svg>
