<?xml version="1.0" encoding="UTF-8" standalone="no"?>
<svg
   height="16"
   viewBox="0 0 16 16"
   width="16"
   version="1.1"
   id="svg4"
   sodipodi:docname="favorite.svg"
   inkscape:version="1.2.2 (732a01da63, 2022-12-09)"
   xmlns:inkscape="http://www.inkscape.org/namespaces/inkscape"
   xmlns:sodipodi="http://sodipodi.sourceforge.net/DTD/sodipodi-0.dtd"
   xmlns="http://www.w3.org/2000/svg"
   xmlns:svg="http://www.w3.org/2000/svg">
  <defs
     id="defs8" />
  <sodipodi:namedview
     id="namedview6"
     pagecolor="#ffffff"
     bordercolor="#000000"
     borderopacity="0.25"
     inkscape:showpageshadow="2"
     inkscape:pageopacity="0.0"
     inkscape:pagecheckerboard="0"
     inkscape:deskcolor="#d1d1d1"
     showgrid="true"
     inkscape:zoom="64.1875"
     inkscape:cx="7.0262902"
     inkscape:cy="7.9922103"
     inkscape:window-width="2498"
     inkscape:window-height="1417"
     inkscape:window-x="54"
     inkscape:window-y="-8"
     inkscape:window-maximized="1"
     inkscape:current-layer="svg4">
    <inkscape:grid
       type="xygrid"
       id="grid289"
       empspacing="4" />
  </sodipodi:namedview>
  <path
     style="color:#000000;fill:#e0e0e0;stroke-linecap:round;stroke-linejoin:round;-inkscape-stroke:none"
     d="M 8,1 C 7.6196329,0.99997019 7.2721761,1.2157114 7.1035156,1.5566406 L 5.5722656,4.6582031 2.1503906,5.15625 C 1.3307667,5.2756329 1.0031986,6.2825587 1.5957031,6.8613281 L 4.0722656,9.2753906 3.4882813,12.685547 c -0.1386041,0.816351 0.7181635,1.437882 1.4511718,1.052734 L 8,12.128906 l 3.060547,1.609375 c 0.733008,0.385149 1.589776,-0.236383 1.451172,-1.052734 L 11.927734,9.2753906 14.404297,6.8613281 C 14.996802,6.2825585 14.669233,5.2756325 13.849609,5.15625 L 10.427734,4.6582031 8.8964844,1.5566406 C 8.7278239,1.2157114 8.3803671,0.99997019 8,1 Z"
     id="path293"
     transform="translate(-4.9677848e-8,0.5729274)"
     sodipodi:nodetypes="ccccccccccccccccc" />
</svg>
