<?xml version="1.0" encoding="UTF-8" standalone="no"?>
<svg
   height="16"
   viewBox="0 0 16 16"
   width="16"
   version="1.1"
   id="svg4"
   sodipodi:docname="folder_up.svg"
   inkscape:version="1.2.2 (732a01da63, 2022-12-09)"
   xmlns:inkscape="http://www.inkscape.org/namespaces/inkscape"
   xmlns:sodipodi="http://sodipodi.sourceforge.net/DTD/sodipodi-0.dtd"
   xmlns="http://www.w3.org/2000/svg"
   xmlns:svg="http://www.w3.org/2000/svg">
  <defs
     id="defs8" />
  <sodipodi:namedview
     id="namedview6"
     pagecolor="#ffffff"
     bordercolor="#000000"
     borderopacity="0.25"
     inkscape:showpageshadow="2"
     inkscape:pageopacity="0.0"
     inkscape:pagecheckerboard="0"
     inkscape:deskcolor="#d1d1d1"
     showgrid="true"
     inkscape:zoom="64.1875"
     inkscape:cx="8.3894839"
     inkscape:cy="6.714703"
     inkscape:window-width="2498"
     inkscape:window-height="1417"
     inkscape:window-x="54"
     inkscape:window-y="-8"
     inkscape:window-maximized="1"
     inkscape:current-layer="svg4">
    <inkscape:grid
       type="xygrid"
       id="grid1264"
       empspacing="4" />
  </sodipodi:namedview>
  <path
     id="path2"
     style="stroke-width:0.25;fill:#e0e0e0;fill-opacity:1"
     d="M 10 1 A 1 1 0 0 0 9.9550781 1.0058594 A 1.0001 1.0001 0 0 0 9.8085938 1.0253906 A 1 1 0 0 0 9.703125 1.0488281 A 1.0001 1.0001 0 0 0 9.5703125 1.1054688 A 1 1 0 0 0 9.484375 1.1464844 A 1.0001 1.0001 0 0 0 9.2929688 1.2929688 L 7.2929688 3.2929688 A 1 1 0 0 0 7.2929688 4.7070312 A 1 1 0 0 0 8.7070312 4.7070312 L 9 4.4140625 L 9 10 A 1 1 0 0 0 10 11 A 1 1 0 0 0 11 10 L 11 4.4140625 L 11.292969 4.7070312 A 1 1 0 0 0 12.707031 4.7070312 A 1 1 0 0 0 12.707031 3.2929688 L 10.738281 1.3261719 A 1 1 0 0 0 10.697266 1.2851562 A 1 1 0 0 0 10.53125 1.1542969 A 1 1 0 0 0 10.337891 1.0605469 A 1 1 0 0 0 10.330078 1.0566406 A 1.0001 1.0001 0 0 0 10.316406 1.0527344 A 1 1 0 0 0 10.123047 1.0078125 A 1 1 0 0 0 10.105469 1.0058594 A 1 1 0 0 0 10 1 z M 3 4 A 1 1 0 0 0 2 5 L 2 14 A 1 1 0 0 0 3 15 L 13 15 A 1 1 0 0 0 14 14 L 14 7 A 1 1 0 0 0 13 6 L 12 6 L 12 10 A 2 2 0 0 1 10 12 A 2 2 0 0 1 8 10 L 8 6 A 2 2 0 0 1 6.5859375 5.4140625 A 2 2 0 0 1 6.0136719 4 L 3 4 z " />
</svg>
