<?xml version="1.0" encoding="UTF-8" standalone="no"?>
<svg
   height="16"
   viewBox="0 0 16 16"
   width="16"
   version="1.1"
   id="svg43635"
   sodipodi:docname="pow.svg"
   inkscape:version="1.2.2 (732a01da63, 2022-12-09)"
   xmlns:inkscape="http://www.inkscape.org/namespaces/inkscape"
   xmlns:sodipodi="http://sodipodi.sourceforge.net/DTD/sodipodi-0.dtd"
   xmlns="http://www.w3.org/2000/svg"
   xmlns:svg="http://www.w3.org/2000/svg">
  <path
     id="path2151"
     style="font-size:11.4682px;font-family:Bangers;-inkscape-font-specification:Bangers;text-align:center;text-anchor:middle;fill:#e0e0e0;stroke-width:1.72023;stroke-linecap:round;stroke-linejoin:round"
     d="M 3.7128906 1.0722656 C 3.5067375 1.0806726 3.2863535 1.112998 3.0527344 1.1679688 C 2.6685609 1.2583653 2.2448227 1.4141539 1.78125 1.6328125 C 1.3280602 1.849028 0.90748939 2.0667398 0.52148438 2.2890625 C 0.55935502 2.7294273 0.5944576 3.2482498 0.625 3.84375 C 0.6530993 4.4288673 0.67868984 5.0521588 0.703125 5.7148438 C 0.72756015 6.3775287 0.7514455 7.0351981 0.7734375 7.6875 C 0.80336945 8.3269757 0.82506072 8.9312525 0.83789062 9.4980469 C 0.87271395 10.903428 0.89768302 12.343352 0.91601562 13.818359 L 3.4863281 12.654297 L 3.4335938 12.009766 C 3.4158799 11.794774 3.4038151 11.578763 3.3964844 11.361328 C 3.365333 10.996089 3.3375443 10.596487 3.3125 10.164062 C 3.2874555 9.7316377 3.2734399 9.3296008 3.2734375 8.9570312 L 3.4453125 8.9160156 C 3.6760173 8.8617307 3.8960459 8.7813672 4.1054688 8.6757812 C 4.2418117 7.9983099 4.4591473 7.3695709 4.7695312 6.8007812 C 5.1330362 6.1346458 5.6584342 5.5998324 6.3027344 5.2734375 C 6.3029191 5.2721576 6.3025505 5.2708115 6.3027344 5.2695312 C 6.3937352 4.6783056 6.3692382 4.0912175 6.2324219 3.5097656 C 6.1078213 2.980229 5.9150983 2.5113873 5.6542969 2.1015625 C 5.3934954 1.6917379 5.0514392 1.398676 4.6269531 1.2246094 C 4.4134885 1.1323847 4.1765407 1.0817308 3.9140625 1.0722656 C 3.8484429 1.0698993 3.7816084 1.0694632 3.7128906 1.0722656 z M 15.396484 1.5742188 C 15.21056 1.6525357 15.012601 1.7290893 14.802734 1.8046875 C 14.68662 1.8448541 14.573505 1.8832862 14.464844 1.921875 C 14.356183 1.960463 14.251597 2.0000992 14.150391 2.0371094 L 13.421875 2.2949219 L 13.378906 7.328125 L 13.177734 7.3710938 C 13.145986 7.0740528 13.099291 6.6865123 13.037109 6.2089844 C 12.982382 5.7298777 12.914032 5.1681227 12.832031 4.5234375 C 12.790812 4.1816691 12.751327 3.8506548 12.714844 3.53125 C 12.67836 3.2118452 12.648416 2.9416204 12.625 2.7207031 C 12.601584 2.4997857 12.590657 2.3751467 12.591797 2.34375 C 12.428237 2.4173312 12.241117 2.4908081 12.03125 2.5664062 C 11.828838 2.6404258 11.631317 2.6991903 11.4375 2.7402344 L 11.335938 2.7597656 C 11.328221 2.8704434 11.313729 3.111537 11.291016 3.4824219 C 11.268301 3.8533069 11.236993 4.3312294 11.197266 4.9160156 C 11.189987 5.0655447 11.174093 5.2361968 11.152344 5.4277344 C 11.13647 5.6102389 11.123231 5.8161116 11.109375 6.0449219 C 11.095519 6.2737321 11.0767 6.5392069 11.054688 6.8398438 C 11.032676 7.1404807 11.01062 7.4725071 10.986328 7.8359375 L 10.818359 7.8710938 C 10.796608 7.4005814 10.773592 6.9801959 10.75 6.6113281 C 10.733862 6.2408819 10.721836 5.9250351 10.712891 5.6621094 C 10.693157 5.2379028 10.673153 4.8523636 10.654297 4.5058594 C 10.63544 4.1593552 10.617589 3.8508328 10.599609 3.5820312 C 10.58926 3.4596017 10.582159 3.3523772 10.578125 3.2597656 C 10.579966 3.1581209 10.576691 3.0702645 10.568359 2.9941406 L 10.554688 2.7636719 C 10.407176 2.8026991 10.257278 2.8487824 10.105469 2.9042969 C 9.9520809 2.9523574 9.8029323 3.0069688 9.6601562 3.0683594 C 9.5099259 3.131329 9.3522652 3.1932814 9.1855469 3.2519531 C 9.0247045 3.3015916 8.8593285 3.3468619 8.6894531 3.390625 L 8.9003906 5.4492188 C 9.0932821 5.5913363 9.2694626 5.7571256 9.421875 5.9453125 C 9.7076272 6.2948547 9.9441759 6.6832112 10.130859 7.1054688 C 10.534248 8.0178898 10.776159 8.9521635 10.84375 9.890625 L 10.84375 9.8925781 C 10.871817 10.259742 10.875195 10.618312 10.857422 10.966797 L 11.757812 10.603516 L 12.005859 6.3105469 L 12.140625 6.28125 L 12.5625 10.703125 L 15 9.7421875 C 15.004471 9.2115992 15.010324 8.691818 15.019531 8.1835938 C 15.034615 7.6663381 15.052073 7.1566441 15.070312 6.6542969 C 15.109249 5.7347585 15.149687 4.8268623 15.193359 3.9296875 C 15.237032 3.0325127 15.305453 2.2477577 15.396484 1.5742188 z M 3.1542969 3.1523438 C 3.3109594 3.1545184 3.4675414 3.2153435 3.6269531 3.3339844 C 3.8498851 3.4897293 4.0072597 3.7603577 4.0976562 4.1445312 C 4.2075978 4.6117693 4.2308753 5.0609837 4.1679688 5.4921875 C 4.1050624 5.9233914 3.9843724 6.2975121 3.8066406 6.6132812 C 3.6264655 6.9186673 3.4253236 7.129556 3.2011719 7.2480469 C 3.1724609 6.5206203 3.1432132 5.8367414 3.1132812 5.1972656 C 3.0833493 4.5577899 3.0450808 3.882079 2.9980469 3.1699219 C 3.0499623 3.1577062 3.1020761 3.1516188 3.1542969 3.1523438 z M 7.5292969 5.8125 C 7.3061212 5.8099417 7.0630022 5.868445 6.8007812 5.984375 C 6.2693471 6.2193264 5.8440296 6.627021 5.5253906 7.2109375 C 5.2067516 7.7948546 4.9917813 8.4636217 4.8808594 9.2148438 C 4.8108594 9.6804757 4.7831083 10.164136 4.796875 10.667969 C 4.810641 11.171801 4.8660241 11.666578 4.9628906 12.150391 C 5.0597572 12.634202 5.1968331 13.076034 5.3730469 13.474609 C 5.6914679 14.194843 6.0759915 14.667751 6.5273438 14.894531 C 6.978696 15.121308 7.4349755 15.131771 7.8964844 14.927734 C 8.3090453 14.745338 8.684444 14.421741 9.0214844 13.955078 C 9.3624267 13.478331 9.6228439 12.894839 9.8027344 12.205078 C 9.9888115 11.529301 10.049928 10.779612 9.9863281 9.9550781 C 9.9266315 9.1204608 9.7135881 8.2871928 9.3457031 7.4550781 C 9.1880386 7.0984577 8.990108 6.7747898 8.7539062 6.4863281 C 8.5146125 6.1908748 8.2336546 5.990571 7.9101562 5.8828125 C 7.7903071 5.8386217 7.6632023 5.814035 7.5292969 5.8125 z M 7.6152344 8.3007812 C 7.680247 8.3012962 7.7422248 8.3180719 7.7988281 8.3515625 C 7.9120373 8.4185424 8.008178 8.5131332 8.0878906 8.6367188 C 8.1645179 8.7533086 8.2278805 8.8685873 8.2773438 8.9804688 C 8.4040943 9.2671635 8.5043731 9.6062817 8.578125 10 C 8.6518783 10.393718 8.6768169 10.792466 8.6542969 11.195312 C 8.6286829 11.591165 8.5387139 11.947647 8.3867188 12.265625 C 8.2417156 12.580512 8.0119306 12.80815 7.6972656 12.947266 C 7.5224518 13.02455 7.3486817 13.009808 7.1757812 12.902344 C 6.9997881 12.787887 6.8793731 12.656609 6.8144531 12.509766 C 6.6877026 12.223071 6.5901932 11.886726 6.5195312 11.5 C 6.4488647 11.113274 6.4195338 10.698712 6.4335938 10.257812 C 6.4507431 9.8239054 6.538606 9.4349829 6.6953125 9.0898438 C 6.848927 8.7377124 7.0865461 8.4898637 7.4082031 8.3476562 C 7.4816251 8.3151956 7.5502218 8.3002663 7.6152344 8.3007812 z " />
  <defs
     id="defs43639" />
  <sodipodi:namedview
     id="namedview43637"
     pagecolor="#ffffff"
     bordercolor="#000000"
     borderopacity="0.25"
     inkscape:showpageshadow="2"
     inkscape:pageopacity="0.0"
     inkscape:pagecheckerboard="0"
     inkscape:deskcolor="#d1d1d1"
     showgrid="false"
     inkscape:zoom="45.387417"
     inkscape:cx="16.733713"
     inkscape:cy="10.465456"
     inkscape:window-width="2498"
     inkscape:window-height="1417"
     inkscape:window-x="54"
     inkscape:window-y="-8"
     inkscape:window-maximized="1"
     inkscape:current-layer="svg43635" />
</svg>
