<?xml version="1.0" encoding="UTF-8" standalone="no"?>
<svg
   height="16"
   viewBox="0 0 16 16"
   width="16"
   version="1.1"
   id="svg43635"
   sodipodi:docname="properties.svg"
   inkscape:version="1.2.2 (732a01da63, 2022-12-09)"
   xmlns:inkscape="http://www.inkscape.org/namespaces/inkscape"
   xmlns:sodipodi="http://sodipodi.sourceforge.net/DTD/sodipodi-0.dtd"
   xmlns="http://www.w3.org/2000/svg"
   xmlns:svg="http://www.w3.org/2000/svg">
  <defs
     id="defs43639" />
  <sodipodi:namedview
     id="namedview43637"
     pagecolor="#ffffff"
     bordercolor="#000000"
     borderopacity="0.25"
     inkscape:showpageshadow="2"
     inkscape:pageopacity="0.0"
     inkscape:pagecheckerboard="0"
     inkscape:deskcolor="#d1d1d1"
     showgrid="true"
     inkscape:zoom="45.387417"
     inkscape:cx="4.582768"
     inkscape:cy="8.1300066"
     inkscape:window-width="2498"
     inkscape:window-height="1417"
     inkscape:window-x="54"
     inkscape:window-y="-8"
     inkscape:window-maximized="1"
     inkscape:current-layer="svg43635">
    <inkscape:grid
       type="xygrid"
       id="grid233"
       empspacing="4" />
  </sodipodi:namedview>
  <path
     id="rect4112"
     style="color:#000000;fill:#e0e0e0;stroke-linejoin:round;-inkscape-stroke:none"
     d="M 3,1 C 2.4477387,1.0000552 2.0000552,1.4477387 2,2 v 12 c 5.52e-5,0.552261 0.4477387,0.999945 1,1 h 10 c 0.552261,-5.5e-5 0.999945,-0.447739 1,-1 V 2 C 13.999945,1.4477387 13.552261,1.0000552 13,1 Z m 1,1 h 8 c 0.552261,5.52e-5 0.999945,0.4477387 1,1 v 10 c -5.5e-5,0.552261 -0.447739,0.999945 -1,1 H 4 C 3.4477387,13.999945 3.0000552,13.552261 3,13 V 3 C 3.0000552,2.4477387 3.4477387,2.0000552 4,2 Z"
     sodipodi:nodetypes="cccccccccccccccccc" />
  <rect
     style="fill:#e0e0e0;fill-opacity:1;stroke:none;stroke-width:1.63299;stroke-linejoin:round"
     id="rect394"
     width="6"
     height="2"
     x="5"
     y="4"
     ry="1" />
  <rect
     style="fill:#e0e0e0;fill-opacity:1;stroke:none;stroke-width:1.63299;stroke-linejoin:round"
     id="rect394-3"
     width="6"
     height="2"
     x="5"
     y="7"
     ry="1" />
  <rect
     style="fill:#e0e0e0;fill-opacity:1;stroke:none;stroke-width:1.63299;stroke-linejoin:round"
     id="rect394-0"
     width="6"
     height="2"
     x="5"
     y="10"
     ry="0.98898375" />
  <rect
     style="fill:none;fill-opacity:1;stroke:#e0e0e0;stroke-width:2;stroke-linejoin:round;stroke-opacity:1"
     id="rect1836"
     width="10"
     height="12"
     x="3"
     y="2"
     ry="1" />
</svg>
