<?xml version="1.0" encoding="UTF-8" standalone="no"?>
<svg
   height="16"
   viewBox="0 0 16 16"
   width="16"
   version="1.1"
   id="svg43635"
   sodipodi:docname="settings.svg"
   inkscape:version="1.2.2 (732a01da63, 2022-12-09)"
   xmlns:inkscape="http://www.inkscape.org/namespaces/inkscape"
   xmlns:sodipodi="http://sodipodi.sourceforge.net/DTD/sodipodi-0.dtd"
   xmlns="http://www.w3.org/2000/svg"
   xmlns:svg="http://www.w3.org/2000/svg">
  <defs
     id="defs43639" />
  <sodipodi:namedview
     id="namedview43637"
     pagecolor="#ffffff"
     bordercolor="#000000"
     borderopacity="0.25"
     inkscape:showpageshadow="2"
     inkscape:pageopacity="0.0"
     inkscape:pagecheckerboard="0"
     inkscape:deskcolor="#d1d1d1"
     showgrid="true"
     inkscape:zoom="45.387417"
     inkscape:cx="4.6048005"
     inkscape:cy="8.1300066"
     inkscape:window-width="2560"
     inkscape:window-height="1377"
     inkscape:window-x="-8"
     inkscape:window-y="-8"
     inkscape:window-maximized="1"
     inkscape:current-layer="svg43635">
    <inkscape:grid
       type="xygrid"
       id="grid233"
       empspacing="4" />
  </sodipodi:namedview>
  <path
     id="path297"
     style="fill:#e0e0e0;fill-opacity:1;stroke-width:4;stroke-linecap:round"
     inkscape:transform-center-x="-0.38196601"
     d="M 6.634766,1.1347656 5.990234,3.1503906 4.111328,2.1796875 2.179687,4.1113281 3.150391,5.9902344 1.134766,6.6347656 v 2.7304688 l 2.015625,0.6445316 -0.970704,1.878906 1.931641,1.93164 1.878906,-0.970703 0.644532,2.015625 h 2.730468 l 0.644532,-2.015625 1.878906,0.970703 1.93164,-1.93164 -0.970703,-1.878906 2.015625,-0.6445316 V 6.6347656 L 12.849609,5.9902344 13.820312,4.1113281 11.888672,2.1796875 10.009766,3.1503906 9.365234,1.1347656 Z M 8,5 A 3,3 0 0 1 11,8 3,3 0 0 1 8,11 3,3 0 0 1 5,8 3,3 0 0 1 8,5 Z" />
</svg>
