<?xml version="1.0" encoding="UTF-8" standalone="no"?>
<!-- Created with Inkscape (http://www.inkscape.org/) -->

<svg
   width="16"
   height="16"
   viewBox="0 0 4.2333331 4.2333334"
   version="1.1"
   id="svg5"
   inkscape:version="1.2.2 (732a01da63, 2022-12-09)"
   sodipodi:docname="tail_squink.svg"
   inkscape:export-filename="icon.png"
   inkscape:export-xdpi="36"
   inkscape:export-ydpi="36"
   xmlns:inkscape="http://www.inkscape.org/namespaces/inkscape"
   xmlns:sodipodi="http://sodipodi.sourceforge.net/DTD/sodipodi-0.dtd"
   xmlns="http://www.w3.org/2000/svg"
   xmlns:svg="http://www.w3.org/2000/svg">
  <sodipodi:namedview
     id="namedview7"
     pagecolor="#ffffff"
     bordercolor="#000000"
     borderopacity="0.25"
     inkscape:showpageshadow="2"
     inkscape:pageopacity="0.0"
     inkscape:pagecheckerboard="0"
     inkscape:deskcolor="#d1d1d1"
     inkscape:document-units="px"
     showgrid="true"
     inkscape:zoom="44.288463"
     inkscape:cx="5.8931826"
     inkscape:cy="6.9544071"
     inkscape:window-width="2560"
     inkscape:window-height="1377"
     inkscape:window-x="-8"
     inkscape:window-y="-8"
     inkscape:window-maximized="1"
     inkscape:current-layer="layer1">
    <inkscape:grid
       type="xygrid"
       id="grid9"
       spacingx="0.52916666"
       spacingy="0.52916666"
       empspacing="8"
       originx="0"
       originy="0" />
  </sodipodi:namedview>
  <defs
     id="defs2" />
  <g
     inkscape:label="Layer 1"
     inkscape:groupmode="layer"
     id="layer1">
    <text
       xml:space="preserve"
       style="font-style:normal;font-variant:normal;font-weight:normal;font-stretch:normal;font-size:0.264584px;font-family:'Comic Book';-inkscape-font-specification:'Comic Book, ';text-align:center;text-anchor:middle;fill:none;fill-opacity:1;stroke:#000000;stroke-width:0.264584;stroke-linecap:round;stroke-linejoin:round;stroke-dasharray:none;stroke-opacity:1"
       x="0.52916664"
       y="2.1166666"
       id="text1297"><tspan
         sodipodi:role="line"
         id="tspan1295"
         style="font-style:normal;font-variant:normal;font-weight:normal;font-stretch:normal;font-family:'Comic Book';-inkscape-font-specification:'Comic Book, ';stroke-width:0.264584"
         x="0.52916664"
         y="2.1166666" /></text>
    <path
       style="fill:none;stroke:#e0e0e0;stroke-width:0.529167;stroke-linecap:round;stroke-linejoin:round;stroke-dasharray:none"
       d="M 0.52916666,0.52916666 H 2.1166666 l -0.79375,2.11666664 m 1.0583333,0 L 3.175,0.52916666 h 0.5291666"
       id="path350"
       sodipodi:nodetypes="cccccc" />
    <path
       id="path747"
       style="color:#000000;fill:#e0e0e0;stroke-linecap:round;stroke-linejoin:round;-inkscape-stroke:none"
       d="M 1.0759033 1.326534 A 0.26460996 0.26460996 0 0 0 0.81442056 1.6877522 C 0.84975182 1.7739942 0.85128035 1.8643634 0.77721353 2.004012 C 0.70314676 2.1436605 0.54200622 2.3220588 0.26561686 2.5021728 A 0.26460996 0.26460996 0 0 0 0.234611 2.9217854 C 0.51622747 3.1717785 0.62249296 3.4213882 0.67747801 3.8183715 A 0.26460996 0.26460996 0 0 0 1.037146 4.0271443 C 1.6802934 3.7724818 1.7798906 3.5249826 3.1248738 3.7227701 A 0.26460996 0.26460996 0 0 0 3.3651692 3.2912719 C 3.3023913 3.217657 3.2369869 3.0283797 3.2380452 2.8220499 C 3.2391052 2.6157201 3.301465 2.3995482 3.3925577 2.2696289 A 0.26460996 0.26460996 0 0 0 3.1388264 1.8557006 C 2.9798895 1.8782254 2.8294823 1.8999067 2.6783894 1.9078938 L 2.5006225 2.3817667 C 2.6166403 2.3908714 2.7284325 2.3907582 2.8360025 2.3828002 C 2.7942495 2.5306976 2.709656 2.6668463 2.7088785 2.8184326 C 2.7081617 2.9581828 2.7938189 3.0699998 2.8282511 3.2013549 C 1.9377524 3.1363126 1.4522028 3.2759779 1.054716 3.4530191 C 0.98709996 3.2097558 0.87840439 2.9844984 0.7167521 2.7832926 C 0.93275993 2.6137523 1.1432425 2.442726 1.2443685 2.2520589 C 1.2932287 2.1599358 1.2469552 2.0656666 1.2655558 1.968872 C 1.3438406 2.0137317 1.4205502 2.0544713 1.4960327 2.0913452 L 1.6639811 1.6691487 C 1.5260521 1.594406 1.3783404 1.4989544 1.21698 1.3771769 A 0.26460996 0.26460996 0 0 0 1.0759033 1.326534 z " />
  </g>
</svg>
