<?xml version="1.0" encoding="UTF-8" standalone="no"?>
<!-- Created with Inkscape (http://www.inkscape.org/) -->

<svg
   width="16"
   height="16"
   viewBox="0 0 4.2333331 4.2333334"
   version="1.1"
   id="svg5"
   inkscape:version="1.2.2 (732a01da63, 2022-12-09)"
   sodipodi:docname="toolbar_button_play.svg"
   inkscape:export-filename="icon.png"
   inkscape:export-xdpi="36"
   inkscape:export-ydpi="36"
   xmlns:inkscape="http://www.inkscape.org/namespaces/inkscape"
   xmlns:sodipodi="http://sodipodi.sourceforge.net/DTD/sodipodi-0.dtd"
   xmlns="http://www.w3.org/2000/svg"
   xmlns:svg="http://www.w3.org/2000/svg">
  <sodipodi:namedview
     id="namedview7"
     pagecolor="#ffffff"
     bordercolor="#000000"
     borderopacity="0.25"
     inkscape:showpageshadow="2"
     inkscape:pageopacity="0.0"
     inkscape:pagecheckerboard="0"
     inkscape:deskcolor="#d1d1d1"
     inkscape:document-units="px"
     showgrid="true"
     inkscape:zoom="31.316673"
     inkscape:cx="2.2990948"
     inkscape:cy="12.772749"
     inkscape:window-width="2498"
     inkscape:window-height="1417"
     inkscape:window-x="54"
     inkscape:window-y="-8"
     inkscape:window-maximized="1"
     inkscape:current-layer="layer1">
    <inkscape:grid
       type="xygrid"
       id="grid9"
       spacingx="0.52916666"
       spacingy="0.52916666"
       empspacing="8"
       originx="0"
       originy="0" />
  </sodipodi:namedview>
  <defs
     id="defs2" />
  <g
     inkscape:label="Layer 1"
     inkscape:groupmode="layer"
     id="layer1">
    <path
       id="path1121-4-4"
       style="color:#000000;fill:#e0e0e0;stroke-linecap:round;stroke-linejoin:round;-inkscape-stroke:none;fill-opacity:1"
       d="M 2.1171834 0.36328531 C 1.5874853 0.36328531 1.0599363 0.45764585 0.72088622 0.68367919 C 0.37783823 0.91237784 0.21647419 1.3207603 0.21704101 1.7208252 C 0.21760782 2.1208902 0.37982148 2.5285274 0.72088622 2.7559041 C 0.77838003 2.7942332 0.84140158 2.8283905 0.90898843 2.8592569 C 0.85252813 3.2013299 0.65798502 3.3887962 0.43563232 3.611149 A 0.13230489 0.13230489 0 0 0 0.52916666 3.8359415 C 0.63940926 3.8359415 0.74535272 3.793666 0.86713052 3.7305216 C 0.98890831 3.6673773 1.1207358 3.580694 1.2443685 3.4747232 C 1.3858565 3.3534479 1.5216902 3.2079359 1.6117879 3.0437418 C 1.7751143 3.0642609 1.9449463 3.0741168 2.1151163 3.0742309 C 2.645254 3.0745862 3.1741957 2.982094 3.5134806 2.7559041 C 3.8562936 2.5273618 4.0173258 2.1207053 4.0173258 1.7208252 C 4.0173258 1.3209452 3.8562936 0.91222129 3.5134806 0.68367919 C 3.1744304 0.45764585 2.6468815 0.36328531 2.1171834 0.36328531 z M 1.5875 0.66145832 L 3.1749999 1.7197916 L 1.5875 2.7781249 L 1.5875 0.66145832 z " />
    <text
       xml:space="preserve"
       style="font-style:normal;font-variant:normal;font-weight:normal;font-stretch:normal;font-size:0.264584px;font-family:'Comic Book';-inkscape-font-specification:'Comic Book, ';text-align:center;text-anchor:middle;fill:none;fill-opacity:1;stroke:#000000;stroke-width:0.264584;stroke-linecap:round;stroke-linejoin:round;stroke-dasharray:none;stroke-opacity:1"
       x="0.52916664"
       y="2.1166666"
       id="text1297"><tspan
         sodipodi:role="line"
         id="tspan1295"
         style="font-style:normal;font-variant:normal;font-weight:normal;font-stretch:normal;font-family:'Comic Book';-inkscape-font-specification:'Comic Book, ';stroke-width:0.264584"
         x="0.52916664"
         y="2.1166666" /></text>
  </g>
</svg>
