<?xml version="1.0" encoding="UTF-8" standalone="no"?>
<!-- Created with Inkscape (http://www.inkscape.org/) -->

<svg
   width="16"
   height="16"
   viewBox="0 0 4.2333331 4.2333334"
   version="1.1"
   id="svg5"
   inkscape:version="1.2.2 (732a01da63, 2022-12-09)"
   sodipodi:docname="toolbar_button_edit.svg"
   inkscape:export-filename="icon.png"
   inkscape:export-xdpi="36"
   inkscape:export-ydpi="36"
   xmlns:inkscape="http://www.inkscape.org/namespaces/inkscape"
   xmlns:sodipodi="http://sodipodi.sourceforge.net/DTD/sodipodi-0.dtd"
   xmlns="http://www.w3.org/2000/svg"
   xmlns:svg="http://www.w3.org/2000/svg">
  <sodipodi:namedview
     id="namedview7"
     pagecolor="#ffffff"
     bordercolor="#000000"
     borderopacity="0.25"
     inkscape:showpageshadow="2"
     inkscape:pageopacity="0.0"
     inkscape:pagecheckerboard="0"
     inkscape:deskcolor="#d1d1d1"
     inkscape:document-units="px"
     showgrid="true"
     inkscape:zoom="44.288463"
     inkscape:cx="3.3078592"
     inkscape:cy="7.2930957"
     inkscape:window-width="2498"
     inkscape:window-height="1417"
     inkscape:window-x="54"
     inkscape:window-y="-8"
     inkscape:window-maximized="1"
     inkscape:current-layer="layer1">
    <inkscape:grid
       type="xygrid"
       id="grid9"
       spacingx="0.52916666"
       spacingy="0.52916666"
       empspacing="8"
       originx="0"
       originy="0" />
  </sodipodi:namedview>
  <defs
     id="defs2" />
  <g
     inkscape:label="Layer 1"
     inkscape:groupmode="layer"
     id="layer1">
    <path
       id="path1121-4-4"
       style="color:#000000;fill:#e0e0e0;fill-opacity:1;stroke-linecap:round;stroke-linejoin:round;-inkscape-stroke:none"
       d="M 3.7041666 0 L 2.8189493 0.88521727 L 3.348116 1.4143839 L 4.2333332 0.52916666 L 3.7041666 0 z M 2.1171834 0.36328531 C 1.5874858 0.36328531 1.059936 0.45764603 0.72088622 0.68367919 C 0.37783857 0.91237761 0.21647419 1.3207607 0.21704101 1.7208252 C 0.21760782 2.1208898 0.37982182 2.5285276 0.72088622 2.7559041 C 0.77837996 2.794233 0.84140164 2.8283902 0.90898843 2.8592569 C 0.85252818 3.2013296 0.65798479 3.3887964 0.43563232 3.611149 C 0.3540918 3.6945509 0.41253107 3.8349989 0.52916666 3.8359415 C 0.63940915 3.8359415 0.74535284 3.7936654 0.86713052 3.7305216 C 0.98890823 3.6673773 1.1207359 3.5806939 1.2443685 3.4747232 C 1.3858563 3.3534481 1.5216903 3.2079357 1.6117879 3.0437418 C 1.7751141 3.0642609 1.9449465 3.0741168 2.1151163 3.0742309 C 2.6452535 3.0745862 3.174196 2.9820938 3.5134806 2.7559041 C 3.8562932 2.527362 4.0173258 2.1207049 4.0173258 1.7208252 C 4.0173258 1.5477347 3.9873677 1.3728863 3.9253417 1.2118123 L 3.3615519 1.7756022 C 3.3413799 1.7953572 3.3181772 1.811756 3.2928222 1.824178 L 2.2344889 2.3533447 C 2.2304989 2.3522347 2.2265393 2.3510273 2.2226033 2.3497273 C 2.1519364 2.3842913 2.0695534 2.3856146 1.9978108 2.3533447 C 1.9550529 2.3257937 1.9211424 2.2865006 1.9001424 2.2401733 C 1.8937024 2.2385233 1.8873211 2.2366189 1.8810221 2.2344889 C 1.8821321 2.2304989 1.8833394 2.2265393 1.8846394 2.2226033 C 1.8500755 2.1519364 1.8487521 2.0695534 1.8810221 1.9978108 L 2.4101888 0.93947752 C 2.4226577 0.91430565 2.4390546 0.89127971 2.4587646 0.87126463 L 2.8902628 0.43976643 C 2.6488012 0.38736814 2.3833827 0.36328531 2.1171834 0.36328531 z M 2.6360148 1.0774536 L 2.4422281 1.4655436 L 2.7600382 1.7947225 L 3.1558797 1.5968017 L 2.6360148 1.0774536 z " />
    <text
       xml:space="preserve"
       style="font-style:normal;font-variant:normal;font-weight:normal;font-stretch:normal;font-size:0.264584px;font-family:'Comic Book';-inkscape-font-specification:'Comic Book, ';text-align:center;text-anchor:middle;fill:none;fill-opacity:1;stroke:#000000;stroke-width:0.264584;stroke-linecap:round;stroke-linejoin:round;stroke-dasharray:none;stroke-opacity:1"
       x="0.52916664"
       y="2.1166666"
       id="text1297"><tspan
         sodipodi:role="line"
         id="tspan1295"
         style="font-style:normal;font-variant:normal;font-weight:normal;font-stretch:normal;font-family:'Comic Book';-inkscape-font-specification:'Comic Book, ';stroke-width:0.264584"
         x="0.52916664"
         y="2.1166666" /></text>
    <path
       style="color:#000000;fill:#e0e0e0;stroke-width:0.264583;stroke-linecap:round;stroke-linejoin:round;-inkscape-stroke:none"
       d="M 2.1960415,0.44979149 3.7835414,2.0372915"
       id="path34764" />
  </g>
</svg>
