<?xml version="1.0" encoding="UTF-8" standalone="no"?>
<svg
   height="16"
   viewBox="0 0 16 16"
   width="16"
   version="1.1"
   id="svg43635"
   sodipodi:docname="dice_4.svg"
   inkscape:version="1.2.2 (732a01da63, 2022-12-09)"
   xmlns:inkscape="http://www.inkscape.org/namespaces/inkscape"
   xmlns:sodipodi="http://sodipodi.sourceforge.net/DTD/sodipodi-0.dtd"
   xmlns="http://www.w3.org/2000/svg"
   xmlns:svg="http://www.w3.org/2000/svg">
  <defs
     id="defs43639" />
  <sodipodi:namedview
     id="namedview43637"
     pagecolor="#ffffff"
     bordercolor="#000000"
     borderopacity="0.25"
     inkscape:showpageshadow="2"
     inkscape:pageopacity="0.0"
     inkscape:pagecheckerboard="0"
     inkscape:deskcolor="#d1d1d1"
     showgrid="true"
     inkscape:zoom="45.387417"
     inkscape:cx="5.9487853"
     inkscape:cy="8.1300066"
     inkscape:window-width="2498"
     inkscape:window-height="1417"
     inkscape:window-x="54"
     inkscape:window-y="-8"
     inkscape:window-maximized="1"
     inkscape:current-layer="svg43635">
    <inkscape:grid
       type="xygrid"
       id="grid233"
       empspacing="4" />
  </sodipodi:namedview>
  <path
     id="rect4112"
     style="color:#000000;fill:#e0e0e0;stroke-linejoin:round;-inkscape-stroke:none"
     d="M 2 1 C 1.4477387 1.0000552 1.0000552 1.4477387 1 2 L 1 14 C 1.0000552 14.552261 1.4477387 14.999945 2 15 L 14 15 C 14.552261 14.999945 14.999945 14.552261 15 14 L 15 2 C 14.999945 1.4477387 14.552261 1.0000552 14 1 L 2 1 z M 3 2 L 13 2 C 13.552261 2.0000552 13.999945 2.4477387 14 3 L 14 13 C 13.999945 13.552261 13.552261 13.999945 13 14 L 3 14 C 2.4477387 13.999945 2.0000552 13.552261 2 13 L 2 3 C 2.0000552 2.4477387 2.4477387 2.0000552 3 2 z " />
  <circle
     style="fill:#e0e0e0;fill-opacity:1;stroke:none;stroke-width:3;stroke-linecap:butt;stroke-linejoin:round;stroke-dasharray:none;stroke-opacity:1"
     id="path4270-12"
     cx="5"
     cy="5"
     r="1.5" />
  <circle
     style="fill:#e0e0e0;fill-opacity:1;stroke:none;stroke-width:3;stroke-linecap:butt;stroke-linejoin:round;stroke-dasharray:none;stroke-opacity:1"
     id="path4270-12-5"
     cx="11"
     cy="5"
     r="1.5" />
  <circle
     style="fill:#e0e0e0;fill-opacity:1;stroke:none;stroke-width:3;stroke-linecap:butt;stroke-linejoin:round;stroke-dasharray:none;stroke-opacity:1"
     id="path4270-12-7"
     cx="11"
     cy="11"
     r="1.5" />
  <circle
     style="fill:#e0e0e0;fill-opacity:1;stroke:none;stroke-width:3;stroke-linecap:butt;stroke-linejoin:round;stroke-dasharray:none;stroke-opacity:1"
     id="path4270-12-2"
     cx="5"
     cy="11"
     r="1.5" />
</svg>
